<svg xmlns="http://www.w3.org/2000/svg" viewBox="0 0 64 64" fill="none">
  <rect width="64" height="64" rx="12" fill="#E6F4EA" />
  <path d="M32 10c7.732 0 14 6.268 14 14 0 3.657-1.42 7.105-3.91 9.688l-.09.095-9.17 9.422a1.5 1.5 0 0 1-2.16.01l-9.25-9.36A14.003 14.003 0 0 1 18 24c0-7.732 6.268-14 14-14Z" fill="#34A853" />
  <path d="M24 24a8 8 0 0 1 8-8c4.411 0 8 3.589 8 8 0 2.046-.786 3.971-2.207 5.428L32 35.46l-5.76-5.97A7.986 7.986 0 0 1 24 24Z" fill="#fff" />
  <path d="M20 42h24c1.105 0 2 .895 2 2v4H18v-4c0-1.105.895-2 2-2Z" fill="#4285F4" />
  <path d="M24 46h16v6H24v-6Z" fill="#0F9D58" />
</svg>
